<?xml version="1.0" encoding="UTF-8" standalone="no"?>
<svg
   xmlns:dc="http://purl.org/dc/elements/1.1/"
   xmlns:cc="http://creativecommons.org/ns#"
   xmlns:rdf="http://www.w3.org/1999/02/22-rdf-syntax-ns#"
   xmlns:svg="http://www.w3.org/2000/svg"
   xmlns="http://www.w3.org/2000/svg"
   xmlns:sodipodi="http://sodipodi.sourceforge.net/DTD/sodipodi-0.dtd"
   xmlns:inkscape="http://www.inkscape.org/namespaces/inkscape"
   version="1.1"
   x="0px"
   y="0px"
   viewBox="0 0 100 125"
   style="enable-background:new 0 0 100 100;"
   xml:space="preserve"
   id="svg2"
   inkscape:version="0.91 r13725"
   sodipodi:docname="nfc.svg"
   inkscape:export-filename="/home/daniele/Scrivania/nfc"
   inkscape:export-xdpi="1125.7491"
   inkscape:export-ydpi="1125.7491"><metadata
     id="metadata14"><rdf:RDF><cc:Work
         rdf:about=""><dc:format>image/svg+xml</dc:format><dc:type
           rdf:resource="http://purl.org/dc/dcmitype/StillImage" /><dc:title /></cc:Work></rdf:RDF></metadata><defs
     id="defs12" /><sodipodi:namedview
     pagecolor="#ffffff"
     bordercolor="#666666"
     borderopacity="1"
     objecttolerance="10"
     gridtolerance="10"
     guidetolerance="10"
     inkscape:pageopacity="0"
     inkscape:pageshadow="2"
     inkscape:window-width="1301"
     inkscape:window-height="744"
     id="namedview10"
     showgrid="false"
     inkscape:zoom="2.6700352"
     inkscape:cx="28.421818"
     inkscape:cy="57.72184"
     inkscape:window-x="1345"
     inkscape:window-y="24"
     inkscape:window-maximized="1"
     inkscape:current-layer="svg2" /><g
     transform="matrix(0.7035842,0,0,0.7035842,25.896964,19.901344)"
     id="g4"
     style="fill:#757575;fill-opacity:1"><g
       id="g6"
       style="fill:#757575;fill-opacity:1"><g
         id="g8"
         style="fill:#757575;fill-opacity:1"><path
           inkscape:connector-curvature="0"
           d="m 89.1,22.8 -48.464241,0 c -3.2,0 -0.370246,2.600123 -0.342171,5.8 l 0.376402,42.9 c 0.02808,3.199877 -3.422432,5.8 -0.222432,5.8 L 89.1,77.3 c 3.2,0 5.8,-2.6 5.8,-5.8 l 0,-43 C 94.8,25.4 92.3,22.8 89.1,22.8 Z M 75.1,62 c -0.4,0 -0.7,-0.3 -0.7,-0.7 0,-0.4 0.3,-0.7 0.7,-0.7 0.4,0 0.7,0.3 0.7,0.7 -0.1,0.4 -0.4,0.7 -0.7,0.7 z m 3.2,3.4 c -0.2,0.2 -0.5,0.2 -0.6,0 -0.1,-0.1 -0.1,-0.2 -0.1,-0.3 0,-0.1 0,-0.2 0.1,-0.3 1.9,-1.9 1.9,-4.9 0,-6.7 -0.2,-0.2 -0.2,-0.5 0,-0.6 0.2,-0.2 0.5,-0.2 0.6,0 2.2,2.2 2.2,5.7 0,7.9 z m 2,2.9 c -0.1,-0.1 -0.2,-0.3 -0.2,-0.5 0,-0.2 0.1,-0.3 0.2,-0.5 3.3,-3.3 3.3,-8.6 0,-11.9 -0.3,-0.3 -0.3,-0.7 0,-0.9 0.3,-0.3 0.7,-0.3 0.9,0 3.8,3.8 3.8,10 0,13.8 -0.2,0.3 -0.7,0.3 -0.9,0 z m 3.8,3 c -0.3,0.3 -0.9,0.3 -1.3,0 -0.2,-0.2 -0.3,-0.4 -0.3,-0.6 0,-0.2 0.1,-0.5 0.3,-0.6 4.7,-4.7 4.7,-12.4 0,-17.1 -0.3,-0.3 -0.3,-0.9 0,-1.3 0.3,-0.3 0.9,-0.3 1.3,0 5.5,5.3 5.5,14.1 0,19.6 z m 9,-25.1 -53.076623,0 L 39.835176,36 93,36 93,46.2 Z"
           id="path10"
           sodipodi:nodetypes="ssssssscsssscsscsscccscscsccccscscsccscccccc"
           style="fill:#757575;fill-opacity:1" /></g></g></g><path
     inkscape:connector-curvature="0"
     d="m 48.524724,14.871466 -31.6,0 c -3.3,0 -6.1,2.7 -6.1,6.1 l 0,77.9 c 0,3.300004 2.7,6.100004 6.1,6.100004 l 31.7,0 c 3.3,0 6.1,-2.7 6.1,-6.100004 l 0,-77.9 c -0.1,-3.4 -2.8,-6.1 -6.2,-6.1 z m -12.4,87.300004 -6.9,0 c -0.8,0 -1.5,-0.7 -1.5,-1.5 0,-0.800004 0.7,-1.500004 1.5,-1.500004 l 6.9,0 c 0.8,0 1.5,0.7 1.5,1.500004 0,0.8 -0.7,1.5 -1.5,1.5 z m 16.8,-5.900004 -40.4,0 0,-71.4 40.4,0 0,71.4 z"
     id="path4"
     style="fill:#757575;fill-opacity:1" /></svg>