<?xml version="1.0" encoding="UTF-8" standalone="no"?>
<!-- Created with Inkscape (http://www.inkscape.org/) -->

<svg
   xmlns:dc="http://purl.org/dc/elements/1.1/"
   xmlns:cc="http://creativecommons.org/ns#"
   xmlns:rdf="http://www.w3.org/1999/02/22-rdf-syntax-ns#"
   xmlns:svg="http://www.w3.org/2000/svg"
   xmlns="http://www.w3.org/2000/svg"
   xmlns:sodipodi="http://sodipodi.sourceforge.net/DTD/sodipodi-0.dtd"
   xmlns:inkscape="http://www.inkscape.org/namespaces/inkscape"
   width="210mm"
   height="297mm"
   viewBox="0 0 744.09448819 1052.3622047"
   id="svg3411"
   version="1.1"
   inkscape:version="0.91 r13725"
   sodipodi:docname="ticket.svg"
   inkscape:export-filename="/home/daniele/Scrivania/ticket.svg.png"
   inkscape:export-xdpi="292.6037"
   inkscape:export-ydpi="292.6037">
  <defs
     id="defs3413" />
  <sodipodi:namedview
     id="base"
     pagecolor="#ffffff"
     bordercolor="#666666"
     borderopacity="1.0"
     inkscape:pageopacity="0.0"
     inkscape:pageshadow="2"
     inkscape:zoom="3.959798"
     inkscape:cx="396.51214"
     inkscape:cy="805.6469"
     inkscape:document-units="px"
     inkscape:current-layer="layer1"
     showgrid="false"
     inkscape:window-width="1280"
     inkscape:window-height="1000"
     inkscape:window-x="0"
     inkscape:window-y="24"
     inkscape:window-maximized="1" />
  <metadata
     id="metadata3416">
    <rdf:RDF>
      <cc:Work
         rdf:about="">
        <dc:format>image/svg+xml</dc:format>
        <dc:type
           rdf:resource="http://purl.org/dc/dcmitype/StillImage" />
        <dc:title />
      </cc:Work>
    </rdf:RDF>
  </metadata>
  <g
     inkscape:label="Livello 1"
     inkscape:groupmode="layer"
     id="layer1">
    <path
       style="fill:#fff608;fill-opacity:1"
       d="m 337.39536,335.78277 c -8.202,-0.58992 -10.91753,-13.98513 -10.86626,-33.63657 l 0.0568,-21.7665 8.4654,-3.93586 c 10.08305,-4.68796 14.54356,-15.1137 10.94536,-25.58309 -1.43886,-4.18654 -6.03377,-8.86803 -10.94536,-11.1516 l -8.59167,-3.99899 0.0695,-21.70337 c 0.0629,-19.65141 3.89816,-33.70714 12.11363,-34.06319 l 7.65538,-0.33177 58.4914,-0.25254 c 55.74446,-0.24068 65.65988,0.58291 66.94653,3.93586 0.83068,2.16473 3.94596,3.93586 6.92284,3.93586 2.97689,0 6.09217,-1.77113 6.92285,-3.93586 1.14171,-2.97525 5.95374,-3.93586 19.71621,-3.93586 15.83117,0 19.04597,0.84008 24.64639,6.4405 5.81467,5.81467 6.43498,8.55556 6.38371,28.207 l -0.0568,21.7665 -8.4654,3.93586 c -4.91159,2.28357 -9.5065,6.96506 -10.94536,11.1516 -3.5982,10.46939 0.86231,20.89513 10.94536,25.58309 8.39617,3.90367 8.46587,4.0925 8.52219,23.08949 0.0593,20.01714 -4.15551,32.67075 -11.86835,35.63044 -2.33613,0.89646 -11.69954,1.62992 -20.80757,1.62992 -12.29952,0 -16.94864,-1.01261 -18.07039,-3.93586 -0.83068,-2.16472 -3.94596,-3.93586 -6.92285,-3.93586 -2.97688,0 -6.09216,1.77114 -6.92284,3.93586 -1.28665,3.35295 -11.20155,3.93586 -66.94653,3.93586 l -56.8499,-0.25254 z m 147.82329,-25.22814 c 0,-4.80891 -1.5789,-6.78398 -5.91552,-7.39978 -6.44722,-0.91551 -10.10901,4.71149 -7.49647,11.51967 0.94828,2.4712 3.94821,3.78374 7.49647,3.27988 4.33662,-0.6158 5.91552,-2.59087 5.91552,-7.39977 z m 0,-26.23907 c 0,-4.80891 -1.5789,-6.78397 -5.91552,-7.39978 -3.54826,-0.50385 -6.54819,0.80869 -7.49647,3.27989 -2.61254,6.80817 1.04925,12.43518 7.49647,11.51967 4.33662,-0.61581 5.91552,-2.59087 5.91552,-7.39978 z m 0,-26.23907 c 0,-4.8089 -1.5789,-6.78397 -5.91552,-7.39977 -3.54826,-0.50386 -6.54819,0.80868 -7.49647,3.27988 -2.61254,6.80818 1.04925,12.43518 7.49647,11.51967 4.33662,-0.6158 5.91552,-2.59087 5.91552,-7.39978 z m 0,-26.23907 c 0,-4.8089 -1.5789,-6.78397 -5.91552,-7.39977 -3.54826,-0.50386 -6.54819,0.80868 -7.49647,3.27988 -2.61254,6.80818 1.04925,12.43519 7.49647,11.51968 4.33662,-0.61581 5.91552,-2.59087 5.91552,-7.39979 z m 0,-26.23906 c 0,-4.80891 -1.5789,-6.78397 -5.91552,-7.39978 -3.54826,-0.50385 -6.54819,0.80869 -7.49647,3.27989 -2.61254,6.80817 1.04925,12.43518 7.49647,11.51967 4.33662,-0.61581 5.91552,-2.59087 5.91552,-7.39978 z"
       id="path3400"
       inkscape:connector-curvature="0"
       sodipodi:nodetypes="sscssscsscssssssscsssssssssscssssssssssssssssssssssssss" />
  </g>
</svg>
